<?xml version="1.0" encoding="UTF-8"?>
<svg id="Layer_2" data-name="Layer 2" xmlns="http://www.w3.org/2000/svg" viewBox="0 0 453.51 452.77">
  <defs>
    <style>
      .cls-1 {
        stroke-width: 0px;
      }
    </style>
  </defs>
  <g id="katman_1" data-name="katman 1">
    <g>
      <path class="cls-1" d="m69.97,294.55c-4.12.35-7.74,1.28-11.53.6-5.38-.96-9.88-3.24-12.44-8.08-2.29-4.35-5.79-6.74-10.18-8.4-5.39-2.03-10.25-5.07-14.84-8.52-11.31-8.51-17.48-19.95-19.88-33.82-3.23-18.65,1.06-36.07,7.85-53.16,1.12-2.83,2.92-5.35,5.69-6.59,3.42-1.53,3.95-3.85,3.27-7.15-.43-2.11-.31-4.33-.49-6.49-.94-11.41,3.74-20.34,12.24-27.51,8.92-7.53,19.6-10.74,30.89-12.41,3.51-.52,7-1.2,10.48-1.87,3.94-.76,6.98-2.86,8.55-6.59,3.87-9.17,11.19-12.01,20.51-11.84,9.62.17,18.75,2.34,27.63,5.85.89.35,1.84.54,2.66.77,1.32-1.15.76-2.31.34-3.38-4.56-11.66-4.21-23.57-1.73-35.56,1.04-5.02,2.11-10.05,3.45-14.99,2.85-10.52,8.9-18.86,17.98-24.89,4.6-3.06,9.24-6.11,14.15-8.62,5.52-2.82,10.54-6.17,14.84-10.61,13.22-13.63,39.88-15.21,53.2-3.08,3.2,2.92,6.77,2.88,10.52,1.67,4.32-1.39,8.54-3.08,12.89-4.32,11.06-3.14,21.55-1.68,31.09,4.82,5.86,4,11.96,7.85,17.09,12.68,20.59,19.38,29.97,42.62,23.03,71.04-.09.38-.22.77-.26,1.16-.11,1.13-1.07,2.36-.1,3.36,1.23,1.26,2.53.22,3.72-.33,10.36-4.78,21.25-7.29,32.63-7.67,4.55-.15,9.08-.05,13.47,1.45,2.31.79,4.89,1.84,5.15,4.37.45,4.34,3.3,4.18,6.3,4.25,16.54.41,31.2,6.1,44.48,15.75,5.82,4.23,10.7,9.31,14.64,15.34,3.11,4.76,4.57,10.05,5.22,15.57.58,4.87-1.68,8.78-4.84,12.27-2.25,2.49-4.5,4.98-6.71,7.5-1.65,1.87-1.76,3.8-.3,5.92,1.68,2.43,3.17,5,4.81,7.46,10.95,16.5,10.64,32.86-.41,49.21-4.28,6.33-9.64,11.42-15.99,15.61-8.08,5.33-16.54,10.01-24.97,14.74-3.61,2.03-7.25,4.01-9.19,8.04-1.31,2.73-4.52,2.99-6.68,4.68.62,2.09,2.47,3.05,3.9,4.35,5.72,5.2,10.84,10.92,15.62,16.98,14.38,18.22,16.78,38.64,11.18,60.49-1.02,3.99-2.66,7.85-4.26,11.66-3.62,8.62-9.36,15.49-17.37,20.4-2.86,1.75-5.69,3.56-8.59,5.24-3.67,2.12-6.66,4.89-8.83,8.55-1.01,1.7-2.13,3.32-3.18,5-3.67,5.88-8.92,8.47-15.64,6.56-5.62-1.59-9.37.28-13.81,3.85-15.96,12.86-34.26,16.44-54.05,11.05-17.33-4.72-32.1-13.97-44.79-26.62-2.07-2.07-4.15-4.14-6.03-6.01-1.1.27-1.51.6-1.55,1.27-.72,12.63-8.01,22.03-15.53,31.24-2.83,3.47-6.94,4.81-11.24,3.76-5.03-1.22-8.69.47-12.3,3.76-7.35,6.71-15.56,12.11-25.12,15.26-9.35,3.08-18.81,4.37-28.53,1.92-5.49-1.39-10.3-4.01-14.28-8.01-7.65-7.67-16.26-14.47-22.04-23.86-1.19-1.94-3.14-2.35-5.11-2.43-14.66-.6-24.1-8.93-30.61-21.1-7.87-14.71-13.11-30.44-16.32-46.79-1.46-7.44-.6-14.97,1.37-22.3,2.2-8.19,4.39-16.38,7.17-24.41.82-2.38,1.99-4.74,1.68-8.03Zm258.37-19.95c5.2,1.41,10.5,1.5,15.84,1.25,14.46-.69,28.59-3.18,42.34-7.75,2.34-.78,4.35-1.7,5.41-4.13,1.33-3.05,3.95-4.86,6.71-6.45,5.3-3.05,10.64-6.04,15.92-9.12,12.96-7.57,24.23-16.63,31.1-30.66,5.72-11.68,5.53-22.29-2.15-32.78-1.86-2.54-3.66-5.16-5.27-7.86-3.07-5.14-2.91-7.18.65-11.81,1.92-2.5,3.99-4.9,5.88-7.42,2.88-3.85,3.58-8.1,2.77-12.87-1.57-9.26-6.33-16.5-13.5-22.24-9.05-7.25-19.26-12.26-30.5-15.16-6.12-1.58-12.33-2.68-18.58-3.55-2.65-.37-5.04-1.17-6.2-3.87-.97-2.24-2.81-3.2-5.05-3.61-1.74-.32-3.48-.81-5.23-.89-15.17-.73-29.17,3.93-43.03,9.33-2.08.81-2.33,2.6-2.77,4.22-4.57,16.56-12.32,31.54-22.32,45.43-1.77,2.08-3.43,4.26-5.33,6.21-3.76,3.85-6.52,8.75-11.74,11.32,2.47-3.01,4.91-5.8,7.13-8.76,1.72-2.3,4.38-4,4.8-7.17l-.15.06c.7-.2,1.33-.51,1.63-1.24,6.33-7.69,10.87-16.41,14.78-25.5,4.85-11.29,6.99-23.44,11.03-34.98,2.75-7.85,3.15-15.77,2.24-23.92-1.84-16.46-7.54-31.11-20.3-42.18-6.84-5.93-14-11.56-21.42-16.75-8.31-5.82-17.62-6.54-27.14-3.13-3.71,1.32-7.27,3.06-10.87,4.66-5.38,2.4-10.23,2.29-14.57-2.31-3.66-3.88-8.45-5.87-13.63-6.59-14.55-2.01-27.48,1.61-37.93,12.18-4.35,4.4-9,8.24-14.33,11.32-2.91,1.68-5.7,3.54-8.64,5.17-6.26,3.47-10.65,8.64-14.09,14.81-3.5,6.28-5.22,13.17-7.25,19.98-4.16,13.95-2.97,27.68,1.13,41.39.84,2.8,2.27,4.89,4.85,6.37,5.33,3.06,9.86,7.22,14.67,11.01,9.46,7.45,18,15.95,27.22,23.68.86,1.35,1.37,2.5-1.11,2.03-4.21-3.55-8.28-7.28-12.66-10.6-12.71-9.65-24.87-20.12-39.51-26.94-9.24-4.3-18.92-6.76-29.12-6.92-6.95-.11-12.69,1.9-16.05,8.76-2.21,4.5-6.22,6.99-11.22,7.84-3.89.66-7.76,1.41-11.62,2.2-11.4,2.33-21.96,6.37-30.3,14.93-5.84,5.98-8.72,13.03-7.84,21.47.29,2.75.3,5.53.73,8.25.7,4.34-.82,7.27-4.88,8.98-2.66,1.12-4.66,3.01-5.68,5.73-5.66,15.1-9.66,30.44-7.34,46.83,1.91,13.47,7.35,24.85,18.49,33.15,4.94,3.68,10.28,6.6,15.94,8.96,3.7,1.55,7.01,3.58,8.92,7.36,3.79,7.52,10.53,8.82,18.04,8.43,2.37-.12,3.97-.74,4.25-3.67.51-5.35,3.51-9.53,7.25-13.21,3.67-3.61,7.75-6.72,11.96-9.66,11.53-8.05,23.93-14.4,37.23-18.99,1.13-.08,2.26-.15,3.39-.23.92.27,2.06.07,2.59,1.19-.73.23-1.51.39-1.93,1.15-2.67-.14-5,1.09-7.34,2.03-15.15,6.09-28.74,14.76-41.2,25.25-1.5,1.26-2.84,2.75-4.1,4.26-1.68,2-3.17,4.37-2.99,6.94.59,8.32-3.27,15.21-6.27,22.52-5.23,12.77-8.13,26.15-5.44,39.93,3.03,15.53,8.07,30.53,14.82,44.85,5.75,12.19,14.7,19.95,29.15,19.08.2-.01.39,0,.59,0,3.52,0,6.01,1.63,7.53,4.78,3.94,8.16,10.43,14.22,16.54,20.69,9.47,10.04,20.85,11.86,33.64,9.33,11.97-2.37,22.22-8.08,31-16.36,4.94-4.66,9.99-7.55,16.98-4.95,2.96,1.1,5.35-.22,7.08-2.83,1.96-2.97,3.91-5.94,6.02-8.8,4.99-6.73,7.34-14.3,7.82-22.6.17-2.9-.27-5.26-2.2-7.62-8.24-10.03-13.84-21.49-18.21-33.67-4.57-12.75-6.84-25.5-2.34-38.74.86-.85,1.84-1.86,2.21.26.19,1.1-.09,2.28-.15,3.42-1.56,5.25-1.16,10.59-.22,15.82,3.67,20.43,11.64,38.85,25.91,54.25,10.63,11.48,21.73,22.34,35.72,29.83,23.21,12.42,46.05,12.94,68.17-2.26,5.4-3.71,10.54-5.9,17.05-4.18,5.36,1.41,9.29-.66,11.66-5.58,3.5-7.26,9.14-12.08,16.32-15.62,10.16-5,17.24-13.02,21.11-23.73,1.21-3.34,2.53-6.66,3.37-10.1,4.84-19.93,3.07-38.75-9.38-55.84-5.37-7.36-11.38-14.14-17.48-20.87-2.28-2.51-4.5-3.2-7.78-1.97-9.54,3.57-19.53,4.7-29.66,4.76-3.89.02-7.78,0-12.85,0,8.35,7.94,15.43,15.8,21.4,24.59,8.34,12.28,13.13,22.5,13.11,28.7-1.77-3.46-3.28-6.62-4.97-9.68-8.58-15.51-20.18-28.69-32.09-41.64-2.49-2.7-5.07-4.89-8.61-5.86.53-.98,1.55-.88,2.42-1.08Z"/>
      <path class="cls-1" d="m180.08,405.06c5.45-10.37,12.53-19.88,16.48-31.04,3.98-11.25,5.13-23.03,6.34-34.85,2.29,2.55,2.88,7.42,2.44,16.34-1,20.26-10.02,36.45-25.26,49.56Z"/>
      <path class="cls-1" d="m153.02,284.8c1.77-.72,2.73-.58,1.76,1.64-16.51,12.99-31.26,27.44-39.41,47.99-1.43-2.66-.53-4.84.21-6.97,4.2-12.02,11.84-21.62,21.09-30.12,5.08-4.67,11.01-8.22,16.36-12.54Z"/>
      <path class="cls-1" d="m267.68,312.71c.67,2.23,1.48,4.38,3.18,6.07,6.63,13.9,16.57,25.36,27,36.45,1.75,1.87,3.41,3.82,5.07,5.77.22.26.18.73.28,1.15-1.33,1.35-2.03-.12-2.79-.73-13.07-10.49-24.41-22.4-30.89-38.23-.36-.88-.7-1.86-1.74-2.26.32-2.14-1.38-3.83-1.33-5.91.25-.85.12-1.9,1.22-2.3Z"/>
      <path class="cls-1" d="m185.61,135.43c.19,2.33,2.15,4.12,2.08,6.74-2.27.14-2.47-2.3-3.96-2.95-7.27-13.87-13.12-28.28-15.94-43.74-1.76-9.68-1.68-19.46-.25-29.26,1.65,11.84,2,23.88,5.86,35.27,3.85,11.39,7.55,22.84,12.22,33.94Z"/>
      <path class="cls-1" d="m279.37,129.34c-4.98,5.75-9.46,11.99-16.07,16.8-.8-2.96,1.17-4.41,2.25-6.09,3.2-4.96,7.52-9.15,10.17-14.5,11.92-15.22,15.46-32.64,12.93-51.67.45-.02.91-.04,1.36-.06.45,2.3,1.06,4.59,1.34,6.91,1.88,15.73-.52,30.56-9.38,44.01-.96,1.47-1.74,3.05-2.61,4.58Z"/>
      <path class="cls-1" d="m234.57,197.59c-.79-9.51,2.99-17.25,5.89-25.18,2.19-5.99,6.31-10.4,11.96-13.38,2.89-1.52,5.95-2.09,9.17-1.73,6.12.68,8.7,5.99,5.37,11.2-2.41,3.78-6.24,5.99-9.87,8.35-5.15,3.36-8.83,7.72-10.67,13.7-2.32,7.53-2.43,7.49,4.63,11.2,1.68-.51,1.85-2.31,2.64-3.55,8.11-12.73,20.17-17.76,34.73-17.6,5.86.06,9.34,2.72,9.9,6.67.52,3.64-2.54,7.46-7.51,9.51-5.78,2.39-12.01,2.35-18.04,2.92-7.83.74-12.47,5.05-16.23,11.42,1,.74,1.9,1.2,2.53,1.9,2.43,2.71,4.67,2.34,7.62.47,12.07-7.68,24.86-7.99,38-2.99,2.43.93,4.6,2.24,6.34,4.22,2.13,2.42,2.93,5.21,1.81,8.24-1.1,2.99-3.83,3.83-6.67,4.1-5.41.51-10.61-.59-15.63-2.57-2.2-.87-4.3-1.98-6.46-2.94-5.52-2.47-11.09-2.11-16.77-.5-2.12.6-2.62,1.71-2.86,3.73-.72,6.14-.32,6.95,5.7,8.18,3.71.76,7.48.21,11.23.18,5.53-.05,11.06-.29,16.49,1.14,3.86,1.02,7.59,2.34,10.43,5.27,4.18,4.32,2.72,9.15-3.07,10.66-4.22,1.1-8.26-.15-12.27-.99-10.06-2.1-19.69-5.58-29.35-9.82-.96,2.33-1.35,3.79,1.73,4.79,6.21,2.03,11.88,5.3,17.45,8.67,5.91,3.58,10.28,8.56,13.28,14.76.95,1.97,1.58,4.03,1.66,6.25.21,5.7-3.12,8.37-8.7,6.94-3.2-.82-5.6-2.82-7.74-5.2-2.14-2.37-3.8-5.08-5.03-7.99-3.16-7.48-9.33-12.08-15.56-16.65-1.38-1.01-2.63-1.38-4.3-.37-1.51.91-2.01,1.66-.92,3.2,2.29,3.24,4.76,6.32,7.68,8.99,4.37,4.01,8.62,8.13,12.1,12.97,2.79,3.88,4.98,8.04,6.13,12.72.76,3.08.52,6.01-1.83,8.25-2.61,2.49-5.79,2.1-8.89.93-5.26-1.99-8.85-5.85-11.43-10.68-5.02-9.38-10.09-18.75-12.29-29.69-3.21,1.69-4.07,4.09-4.19,7.21-.37,9.81,3.89,17.95,8.98,25.82,1.71,2.65,3.86,5.06,5.26,7.85,2.76,5.5-.8,10.41-6.98,10.01-2.26-.15-4.16-1.13-5.93-2.45-3.64-2.73-6.14-6.42-6.82-10.78-1.51-9.69-4.14-19.36-1.83-29.31.32-1.38.54-2.7-1.27-3.4-1.76-.68-2.48.22-3.19,1.59-2.93,5.66-5.5,11.35-4.89,18.01.36,3.93.34,7.89.39,11.84.05,3.85-1.05,7.42-3.11,10.65-1.92,3-4.64,5.26-8.3,4.62-3.75-.66-6.11-3.36-7.09-7.15-.67-2.56-.5-5.06.06-7.61,1.37-6.27,4.23-11.9,7.52-17.3,3.31-5.43,5.65-11.26,8.15-17.06q-6.48-2.32-10.39,2.54c-4.66,5.75-8.24,12-9.73,19.37-.66,3.27-1.78,6.46-3.4,9.44-1.43,2.61-3.06,5.08-5.22,7.15-3.36,3.22-6.61,4.1-9.59,2.6-3.7-1.86-4.58-5.22-4.51-8.96.04-2.17.34-4.32,1.26-6.35,4.45-9.86,9.89-18.9,19.66-24.49,3.62-2.07,6.54-5.07,9.75-7.68,1.67-1.35,1.09-2.59.79-4.16-.37-1.95-1.69-1.7-3.07-1.88-7.39-.99-12.43,2.85-16.66,8.15-2.35,2.94-3.82,6.43-5.34,9.87-1.99,4.52-4.12,8.97-7.71,12.52-1.42,1.4-2.89,2.72-4.75,3.47-5.54,2.22-10.09-.76-10.16-6.69-.05-4.73,1.79-8.94,4.43-12.66,6.5-9.15,14.15-16.99,25.21-20.61.75-.24,1.48-.53,2.2-.85.72-.31,1.47-.69,1.33-1.66-.19-1.34-1.3-1.3-2.26-1.29-1.98.03-3.9.34-5.78,1.06-4.11,1.58-7.79,3.81-11.03,6.78-2.91,2.67-5.76,5.4-8.69,8.05-2.51,2.27-5.29,4.16-8.61,5.05-6.99,1.87-12.32-3.1-10.87-10.19.65-3.16,2.29-5.84,4.48-8.21,7.76-8.42,17.72-11.46,28.77-11.67,3.74-.07,7.49.42,11.23.66,1.18.07,2.37.3,3.53.17,1.39-.15,2.89-.63,2.74-2.42-.11-1.32-1.27-1.81-2.54-1.99-10.85-1.52-21.6-2.35-31.83,3.06-2.76,1.46-5.73,2.7-8.96,2.88-3.5.2-6.81-.14-8.7-3.66-1.46-2.72-.6-5.66,2.79-8.9,7.97-7.62,17.55-9.45,28-7.13,5.38,1.19,10.62,2.98,15.91,4.57,1.52.46,2.93,1.38,3.93-.8,1.18-2.57-.8-3.01-2.38-3.73-4.32-1.98-8.86-3.24-13.49-4.32-6.19-1.43-12.14-3.46-17.13-7.65-2.15-1.81-4-3.83-5.13-6.41-2.17-4.97-.26-9.67,4.83-11.51,5.01-1.82,9.75-.95,14.03,2.14,2.89,2.08,5.39,4.62,7.75,7.29,4.73,5.33,9.95,10.14,15.59,14.5.96.74,2.14,1.41,3.12.23.73-.88-.08-1.82-.58-2.64-2.81-4.58-6.37-8.53-10.18-12.28-4.11-4.04-7.85-8.35-9.59-14.03-1.05-3.43-1.79-6.9-.9-10.47,1.34-5.4,5.68-7.59,10.9-5.58,3.45,1.33,5.94,3.85,8.04,6.77,3.17,4.39,5.11,9.31,6.25,14.59,1.57,7.3,3.63,14.43,7.7,20.9q4.04-3.62,2.09-8.18c-4.33-10.11-5.72-20.48-2.62-31.2,1.22-4.21,3.09-8.11,6.15-11.35,1.79-1.89,3.81-3.44,6.31-4.27,5.15-1.71,8.59.51,9.04,5.93.46,5.48-.97,10.63-3.5,15.39-4.05,7.59-4.56,15.84-4.95,24.13-.1,2.18-.02,2.18,3.33,4.34Zm-22.41,60.58c.56-.13,1.22-.13,1.66-.43.53-.36,1.65-.74.7-1.67-.16-.16-1.07.24-1.47.57-.43.35-.68.93-1.01,1.41-.17.23-.34.46-.51.69.21-.19.42-.38.64-.57Zm51.14-24.01c-.26-.47-.52-.94-.78-1.41-.14.13-.37.23-.39.38-.1.64.26,1.05.78,1.36,7.99,5.7,17.2,8.4,26.51,10.94,4.3,1.17,8.59.82,12.91.76,1.45-.02,2.74-.56,3.24-2.08.52-1.55-.33-2.7-1.4-3.61-.89-.76-1.89-1.41-2.93-1.96-4.46-2.38-9.37-3.65-14.25-2.76-8.12,1.49-15.96,1.5-23.69-1.62Zm3.47,15.43c-.46-.53-1.26-1.22-1.64-.54-.48.87.73.75,1.22,1.03,5.76,5.62,10.38,12.11,14.64,18.9,1.13,1.8,2.72,3.35,4.27,4.84,3.17,3.03,7.17,4.18,8.94,2.76,1.53-1.23,1.23-6.16-.6-9.46-3.17-5.68-7.78-9.84-13.69-12.44-4.29-1.89-8.74-3.41-13.13-5.1Zm-52.28-23.48l-.07-.08c-1.09,2.8-3.3,3.58-6.11,3.71-4.38.2-5.42,1.28-5.84,5.44-.55,5.47,1.94,8.5,7.77,8.63,3.3.08,4.88.82,5.47,4.43.84,5.15,4.75,7.72,9.46,6.11,3.24-1.11,5.02-.5,7.05,1.95,2.2,2.65,5.32,2.34,8.19,1.29,2.73-1,4.48-2.92,4.24-6.17-10.89,1.05-13.38.09-15.49-6.45,3.56,2.43,6.98,3.3,10.81,2.19,4.38-1.27,4.47-5.96,6.96-8.83,1.76,2.14,1.86,4.16,1.12,6.38-.69,2.09.35,2.85,2.36,2.89,2.78.06,5.01-.85,6.53-3.25,1.7-2.69,1.73-5.59,1.02-8.55-.2-.85-1.03-1.18-1.85-1.17-3.91.06-7.58-2.09-11.81.55-3.66,2.29-7.41.03-8.81-3.84,6.93,1.72,8.92,1.01,11.04-3.94,1.69-3.96,1.17-4.92-5.08-9.29.24-.68.82-.81,1.39-.7,5.87,1.07,8.5,4.78,7.83,10.99-.31,2.85.74,3.92,3.55,3.56,1.83-.24,3.39-1.07,4.59-2.45,4.28-4.92,2.15-13.49-3.89-15.79-2.74-1.04-4.68-3.26-5.37-5.99-.35-1.38-1.24-2.42-2.44-3.23-1.96-1.32-4.24-1.62-6.23-.77-2.8,1.2-4.77.58-6.91-1.33-2.13-1.89-5.27-2.19-7.15-.55-3.64,3.18-7.29,4.7-12.25,5.06-4.04.29-6.91,4.32-9.22,7.81-2.08,3.14-2.63,6.7-.46,10.03,2.34,3.6,5.71,2.69,9,1.52.18-.07.38-.1.57-.15Zm-.22-23.63c-2.39-4.96-3.54-9.47-4.96-13.9-1.73-5.43-3.21-10.96-6.09-15.97-1.7-2.97-3.8-5.54-6.83-7.17-3.46-1.87-6.32-.49-6.84,3.44-.71,5.28.27,10.26,3.97,14.32,2.12,2.32,4.3,4.68,6.8,6.55,3.2,2.4,5.78,5.27,8.28,8.34,1.25,1.54,1.86,4.03,5.66,4.39Zm4.92-27.08c.12,6.93,2.66,13.14,4.82,19.45.35,1.01,1.01,1.71,2.19,1.4.86-.23,1.18-.95,1.23-1.79.04-.59.08-1.18.07-1.77-.21-11.8,2.37-22.98,7.4-33.62.41-.88.77-1.84.87-2.79.16-1.52.71-3.36-.77-4.4-1.51-1.07-3.01.12-4.36.87-.85.47-1.59,1.15-2.33,1.79-6.43,5.51-8.7,12.83-9.12,20.86Zm32.56,78.05c-.77,2.1-.7,3.44-.31,4.67,2.05,6.35,3.79,12.82,6.76,18.85,1.92,3.91,4.43,7.43,6.99,10.91,1.63,2.21,3.62,4.19,6.28,5.23,3.7,1.45,5.85,0,5.68-3.9-.05-1.15-.46-2.29-.74-3.43-1.41-5.76-4.71-10.57-9.06-14.22-6.05-5.08-11.69-10.35-15.6-18.12Zm-54.02-21.42c-4.34,0-8.19.05-12.04-.01-7.26-.11-14.04,1.72-20.19,5.45-4.53,2.75-8.76,6.06-10.53,11.42-1.21,3.66,1.15,6.31,4.83,5.44,1.48-.35,2.96-1.13,4.18-2.06,4.05-3.09,7.96-6.36,11.95-9.52,5.89-4.67,11.89-9.13,20.04-8.49.62.05,1.06-.32,1.76-2.22Zm57.06-25.44c2.41-.59,3.3-2.28,4.61-3.41,6.24-5.42,12.94-9.61,21.7-9.2,2.95.14,5.83-.87,8.56-1.97,2.05-.83,4.13-2.07,3.99-4.59-.15-2.65-2.61-3.45-4.68-3.8-13.87-2.33-29.52,5.76-34.18,22.97Zm-55.1,36.9c-.94-.87-1.81-.18-2.68.19-5.13,2.15-9.87,5.07-14.02,8.69-5.64,4.93-11.2,10.13-13.13,17.8-.61,2.43-3.3,5.54.04,7.44,3.08,1.75,5.41-1.11,7.57-3.09,4.47-4.11,7.02-9.47,9.52-14.83,2.64-5.67,6.14-10.53,11.57-13.83.84-.51,1.64-1.13,1.12-2.36Zm8.19,18.08c-9.83,6.35-17.49,14.14-21.34,25.18-.44,1.27-.62,2.71-.59,4.06.04,2.47-1.08,5.9,1.8,6.9,3.18,1.1,5.4-1.79,7.06-4.21,2.46-3.59,4.08-7.64,5.31-11.82,1.68-5.69,3.61-11.25,7.32-16.02.72-.93,1.43-1.91.44-4.09Zm-12.51-56.64c-5.54-4.08-8.46-10.15-12.39-15.46-3.33-4.5-9.26-5.83-14.36-3.74-3.8,1.56-4.34,3.06-2.44,6.88.8,1.6,1.75,3.11,3.19,4.22,7.55,5.84,16.74,6.67,26,8.1Zm2.49,15.47c-4.79-1.73-9.57-3.48-14.37-5.19-4.99-1.78-10.18-1.49-15.21-.68-5.12.82-9.59,3.52-13.58,6.86-1.24,1.03-2.29,2.36-1.51,4.11.77,1.72,2.44,1.84,4.06,1.74,2.81-.17,5.33-1.33,7.86-2.42,6.18-2.66,12.4-4.9,19.33-4.7,4.5.13,8.97.27,13.42.28Zm41.25-20.17c2.04-2.51,2.41-4.63,2.55-6.78.29-4.75,2.43-8.77,5.4-12.2,3.46-4.01,7.16-7.85,11.5-11,1.26-.92,2.39-2.04,3.5-3.14.89-.88,1.32-2.02.79-3.23-.64-1.46-1.98-1.83-3.44-1.73-.77.06-1.56.22-2.29.49-6.7,2.57-12.03,6.66-14.7,13.58-1.99,5.15-3.25,10.51-4.1,15.94-.37,2.37-.74,4.95.8,8.06Zm29.68,17.08c3.26.47,6.39-.91,9.7-.43,6.44.94,12.77,2.21,18.83,4.62,2.64,1.05,5.36,1.34,8.12,1.09,2.47-.22,3.41-1.9,2.3-4.11-1.1-2.18-2.97-3.61-5.14-4.71-12.03-6.12-23.11-3.21-33.82,3.55Zm-45.01,51.46c-6.35,8.61-9.81,18.1-11.41,28.3-.35,2.21-.14,4.33.98,6.28,1.38,2.4,3.29,2.73,5.27.85,1.77-1.68,2.54-3.87,3.09-6.23,2.23-9.64.22-19.57,2.07-29.21Zm14.36-1.99c0,5.9-.16,11.81.04,17.71.23,6.87,3.37,12.47,8.5,16.89,2.56,2.2,6.54,2.56,7.53.91,1.49-2.49.02-4.71-1.53-6.41-7.63-8.39-11.5-18.51-14.54-29.09Zm-35.38-57.95c-1.39-1.86-3.32-2.26-6.11-2.86,1.95,2.65,4.11,2.59,6.11,2.86Z"/>
      <path class="cls-1" d="m325.12,172.37c17.13-13.93,36.43-23.28,58.13-27.55,5.31-1.04,10.63-2.05,16.19-1.02-5.41,1.42-10.83,2.78-16.21,4.26-18.14,4.99-35.51,11.78-51.15,22.48-1.78,1.22-3.45,2.59-5.17,3.9-3,1.27-5.06,4.09-9.3,5.54,2.3-3.68,5.47-5.13,7.51-7.6Z"/>
      <path class="cls-1" d="m67.58,229.59c10.99,2.33,21.98,4.78,33.33,3.61,6.25-.65,12.58-.54,18.73-2.11,4.86.5,9.42-1.9,15.54-1.7-4.54,2.96-8.72,3.72-12.46,5.41-14.09,4.33-28.22,3.95-42.35.3-5.11-1.32-10.15-2.94-15.22-4.42.53-.98,1.56-.87,2.43-1.09Z"/>
      <path class="cls-1" d="m142.28,164.95c-9.67-6.78-20.28-12.18-29.45-19.77,12.2,4.38,23,11.43,34.4,17.29,4.99,4.01,10.98,6.77,15.42,11.65-1.64,1.9-2.79.7-3.93.2-5.83-2.51-10.77-6.57-16.44-9.37Z"/>
      <path class="cls-1" d="m375.67,138.12c-6.39,2.34-12.8,4.64-19.18,7.03-6.23,2.33-11.25,6.89-17.31,9.5,9.57-10.96,21.52-16.97,36.02-17.64.16.37.31.75.47,1.12Z"/>
      <path class="cls-1" d="m214.5,226.12c-2.38-9.14.89-15.46,8.89-17.34,3.14-.74,5.89-.02,8.19,2.13,1.46,1.36,2.46,3.02.98,5.12-5.03-4.56-8.72-4.79-12.59-.91-2.73,2.74-2.96,7.42-.49,10.17,2.87,3.2,7.49,2.81,12.52-1.07-.32,3.99-2.19,6-5.99,6.51-4.76.64-8.32-1.64-11.57-4.7,0,0,.07.08.07.08Z"/>
      <path class="cls-1" d="m232.18,233.48c-.2,6.95-1.77,9.27-6.56,10.74-3.95,1.21-8.3-.07-10.53-3.11-2.26-3.08-2.17-5.34.71-9.15,1.38,3.67,1.62,8.08,6.7,8.43,4.76.33,6.59-3.45,9.67-6.9Z"/>
    </g>
  </g>
</svg>